# xmcd
#
# Track frame offsets:
#	150
#	8982
#	24761
#	45315
#	57618
#	70281
#	78754
#	92608
#	105054
#	120632
#	141430
#	172500
#	188719
#	200174
#	215394
#	232695
#	244857
#	261282
#	279651
#	303752
#	324174
#
# Disc length: 4581 seconds
#
# Revision: 1
# Processed by: cddbd v1.5.2PL0 Copyright (c) Steve Scherf et al.
# Submitted via: audiograbber 1.83.01
#
DISCID=0a11e315
DTITLE=Cuby and The Blizzards - Dutch Invasion - Cuby and The Blizzards
DYEAR=1900
DGENRE=Oldies
TTITLE0=Stumble and Fall
TTITLE1=L.S.D. (Got A Million Dollars)
TTITLE2=Back Home
TTITLE3=Richard Cory
TTITLE4=Just For Fun
TTITLE5=Another Day Another Road
TTITLE6=Distant Smile
TTITLE7=The Sunshine Of Your Shadow
TTITLE8=Window Of My Eyes
TTITLE9=Another Land
TTITLE10=Somebody Will Know Somebody
TTITLE11=Nostalgic Toilet
TTITLE12=Appleknockers Flophouse
TTITLE13=Thursday Night
TTITLE14=Backstreet
TTITLE15=Pawn Broker
TTITLE16=Sometimes
TTITLE17=Master Of Planning (Red White and Blue)
TTITLE18=Happyville
TTITLE19=Kid Blue
TTITLE20=Devil Daisy (Harry Muskee Band)
EXTD=
EXTT0=
EXTT1=
EXTT2=
EXTT3=
EXTT4=
EXTT5=
EXTT6=
EXTT7=
EXTT8=
EXTT9=
EXTT10=
EXTT11=
EXTT12=
EXTT13=
EXTT14=
EXTT15=
EXTT16=
EXTT17=
EXTT18=
EXTT19=
EXTT20=
PLAYORDER=
